
<svg xmlns="http://www.w3.org/2000/svg" viewBox="0 0 96 96"><path fill="white" d="M89.76,72.53V85.29A7.72,7.72,0,0,1,82,93H56.35a7.72,7.72,0,0,1-7.71-7.72V75.35a1.51,1.51,0,0,1,1.5-1.51h0a1.5,1.5,0,0,1,1.5,1.5v10A4.72,4.72,0,0,0,56.35,90H82a4.73,4.73,0,0,0,4.72-4.72V83.93h-32a1.5,1.5,0,0,1,0-3h32v-8.4a1.5,1.5,0,0,1,3,0Zm-.12-6.42a1.23,1.23,0,0,0-.14-.25,1,1,0,0,0-.18-.23A1.52,1.52,0,0,0,88,65.22l-.28.08-.26.14-.22.19a1.5,1.5,0,0,0,0,2.12l.22.19a1.58,1.58,0,0,0,.26.13,1.41,1.41,0,0,0,.58.12l.29,0a1.31,1.31,0,0,0,.28-.09,1.26,1.26,0,0,0,.26-.13,2.11,2.11,0,0,0,.23-.19,1.65,1.65,0,0,0,.41-.77,1.43,1.43,0,0,0,0-.29,1.36,1.36,0,0,0,0-.29A1.61,1.61,0,0,0,89.64,66.11ZM31.51,28.8a1.51,1.51,0,0,1,.31-1.64L41.89,17A1.53,1.53,0,0,1,43,16.52H63.53V14.44a1.5,1.5,0,0,1,1.5-1.5H67.7V11.3H65a1.5,1.5,0,0,1-1.5-1.5V4A1.5,1.5,0,0,1,65,2.5h8.33A1.5,1.5,0,0,1,74.86,4V9.8a1.5,1.5,0,0,1-1.5,1.5H70.7v1.64h2.66a1.5,1.5,0,0,1,1.5,1.5V27.5h.81a1.5,1.5,0,0,1,1.5,1.5v8.73a1.5,1.5,0,1,1-3,0V30.5h-10v10H82a7.72,7.72,0,0,1,7.72,7.72V60.85a1.5,1.5,0,1,1-3,0V52.53H51.64v6.69a1.5,1.5,0,0,1-3,0v-11a7.72,7.72,0,0,1,7.71-7.72h4.87V29a1.51,1.51,0,0,1,1.5-1.5h9.14V15.94H66.53v9.11a1.5,1.5,0,0,1-3,0v-.16H46.79L42.4,29.28a1.5,1.5,0,0,1-1.06.44H32.89A1.51,1.51,0,0,1,31.51,28.8ZM82,43.45H56.35a4.72,4.72,0,0,0-4.71,4.72v1.36H86.76V48.17A4.73,4.73,0,0,0,82,43.45ZM66.53,8.3h5.33V5.5H66.53ZM36.48,26.72h4.24l4.39-4.39a1.5,1.5,0,0,1,1.06-.44H63.53V19.52H43.59Zm28,47.52V71.4H61.68a1.5,1.5,0,0,1-1.5-1.5V63.55a1.5,1.5,0,0,1,1.5-1.5h2.84V59.22a1.5,1.5,0,0,1,1.5-1.5h6.35a1.5,1.5,0,0,1,1.5,1.5v2.83h2.85a1.5,1.5,0,0,1,1.5,1.5V69.9a1.5,1.5,0,0,1-1.5,1.5H73.87v2.84a1.5,1.5,0,0,1-1.5,1.5H66A1.5,1.5,0,0,1,64.52,74.24ZM66,68.4a1.5,1.5,0,0,1,1.5,1.5v2.84h3.35V69.9a1.5,1.5,0,0,1,1.5-1.5h2.85V65.05H72.37a1.5,1.5,0,0,1-1.5-1.5V60.72H67.52v2.83a1.5,1.5,0,0,1-1.5,1.5H63.18V68.4ZM31.39,44.75c0-3,4.19-8.6,5-9.7a1.51,1.51,0,0,1,2.39,0c.84,1.1,5,6.73,5,9.7a6.23,6.23,0,0,1-12.45,0Zm3,0a3.23,3.23,0,0,0,6.45,0c0-1-1.52-3.76-3.22-6.23C35.91,41,34.39,43.7,34.39,44.75ZM56.24,69a3.18,3.18,0,0,0,.11-2.46,6.54,6.54,0,0,0-8.29-3.94l-4.63,1.57,0-.09a7.3,7.3,0,0,0-9-4.21L27.84,62a7.42,7.42,0,0,1-4.59,0L7.68,56.67a1.5,1.5,0,1,0-1,2.83l15.58,5.38a10.37,10.37,0,0,0,6.47,0l6.57-2.12a4.34,4.34,0,0,1,5.3,2.4l-9.44,3.21h0a1.5,1.5,0,1,0,1,2.84L41.6,68l.23-.09L49,65.48a3.55,3.55,0,0,1,4.5,2.14.17.17,0,0,1-.11.24L33,75a13.5,13.5,0,0,1-8.81,0L7.72,68.91a1.5,1.5,0,0,0-1,2.82L23.2,77.85a16.51,16.51,0,0,0,10.81,0l20.4-7.14A3.16,3.16,0,0,0,56.24,69Z" data-name="hand sanitizer"/></svg>