<svg xmlns="http://www.w3.org/2000/svg" x="0px" y="0px"
width="50" height="50"
viewBox="0 0 226 226"
style=" fill:#000000;"><g fill="none" fill-rule="nonzero" stroke="none" stroke-width="1" stroke-linecap="butt" stroke-linejoin="miter" stroke-miterlimit="10" stroke-dasharray="" stroke-dashoffset="0" font-family="none" font-weight="none" font-size="none" text-anchor="none" style="mix-blend-mode: normal"><path d="M0,226v-226h226v226z" fill="none"></path><g fill="#ffffff"><path d="M111.74641,9.04c-22.80408,0 -40.81353,6.72706 -52.95109,19.16586c-12.13755,12.4388 -18.11531,30.23515 -18.11531,51.32672c0,8.73196 3.91132,25.56263 7.08016,35.5332c-1.33745,1.13182 -2.61448,1.85383 -3.91969,3.84024c-2.17534,3.31068 -3.79096,8.03192 -3.13398,13.62179c0.00294,0 0.00589,0 0.00883,0c1.06825,9.06427 3.91865,15.19791 6.69172,19.06875c1.98228,2.76701 3.14192,3.32412 4.21102,4.08742c1.41102,8.01476 6.485,17.44292 14.04555,27.08469c7.99178,10.19171 18.44853,19.96233 29.945,25.425c4.14202,5.18105 10.27002,8.76633 17.39141,8.76633c7.11748,0 13.23941,-3.58264 17.38258,-8.7575c11.46846,-5.47006 21.86443,-15.26273 29.80375,-25.46031c7.49706,-9.62953 12.51885,-19.04253 13.93078,-27.03172c1.10069,-0.75994 2.2367,-1.27564 4.22867,-3.99031c2.81791,-3.84026 5.71687,-9.9585 6.78883,-19.03344c0.65949,-5.60848 -0.99249,-10.35159 -3.18695,-13.69242c-1.32082,-2.01081 -2.61244,-2.76076 -3.96383,-3.91086c3.17196,-10.08093 7.33617,-25.65049 7.33617,-42.76344c0,-7.86526 -1.62977,-18.60816 -6.94773,-27.9675c-4.98383,-8.77128 -13.98366,-15.98471 -26.74922,-16.8882c-5.78527,-8.83284 -18.34127,-18.4243 -39.87664,-18.4243zM111.74641,18.08c20.32017,0 30.02095,9.45049 33.44094,15.72289c0.79251,1.45405 2.31665,2.35838 3.97266,2.35711c11.04268,0 17.1509,5.27566 21.34641,12.65953c4.1955,7.38387 5.77359,16.97857 5.77359,23.50047c0,16.75664 -4.53106,33.20915 -7.60102,42.61336c-0.3519,1.0867 -0.27935,2.26633 0.20305,3.30172c-4.90507,4.33547 -10.23812,8.1614 -15.64344,11.56484l-0.25602,-0.17656c-0.12932,0.18513 -0.22729,0.37902 -0.35313,0.565c-3.80583,2.36675 -7.63234,4.5676 -11.37945,6.39156c-10.84246,5.27774 -21.11921,8.06008 -26.84633,8.06008c-6.20373,0 -16.9395,-2.67099 -28.28531,-7.74227c-9.92065,-4.43426 -20.43432,-10.64336 -29.53008,-18.16828c0.72284,-1.15635 0.88504,-2.57721 0.44141,-3.86672c-2.7353,-7.88759 -7.30969,-29.54254 -7.30969,-35.33016c0,-19.40311 5.3743,-34.59012 15.54633,-45.01461c10.17203,-10.42449 25.4266,-16.43797 46.48008,-16.43797zM146.66164,52.49203c-0.06191,0.00461 -0.12372,0.0105 -0.18539,0.01766c-0.07082,0.00716 -0.14147,0.01599 -0.21188,0.02648c-0.01767,0.00284 -0.03533,0.00578 -0.05297,0.00883c-1.60527,0.23245 -2.96295,1.30715 -3.55773,2.81617c-0.21133,0.41975 -2.03963,3.96137 -7.07133,8.09539c-5.33633,4.38431 -13.7894,8.86344 -27.10234,8.86344c-8.47443,0 -19.02682,0.06129 -28.17937,3.37234c-4.57627,1.65554 -8.8906,4.21144 -12.05039,8.18367c-3.15979,3.97223 -4.97023,9.27872 -4.97023,15.56398c-0.02305,1.63007 0.83338,3.14629 2.24135,3.96805c1.40797,0.82176 3.14934,0.82176 4.55731,0c1.40797,-0.82176 2.2644,-2.33798 2.24135,-3.96805c0,-4.63958 1.16993,-7.61797 3.01039,-9.93164c1.84046,-2.31367 4.5505,-4.05128 8.04242,-5.31453c6.98386,-2.52651 16.76722,-2.83383 25.10719,-2.83383c15.38906,0 26.14245,-5.40837 32.84062,-10.91156c2.3009,-1.89042 4.00831,-3.74693 5.45578,-5.47344c4.37676,7.0215 11.42359,20.43644 11.42359,34.465c-0.02305,1.63007 0.83338,3.14629 2.24135,3.96805c1.40797,0.82176 3.14934,0.82176 4.55731,0c1.40797,-0.82176 2.2644,-2.33798 2.24135,-3.96805c0,-23.24114 -14.68139,-42.43632 -16.25258,-44.43195c-0.80386,-1.6331 -2.50881,-2.62475 -4.32578,-2.51602zM88.14,117.52c-3.74449,0 -6.78,3.03551 -6.78,6.78c0,3.74449 3.03551,6.78 6.78,6.78c3.74449,0 6.78,-3.03551 6.78,-6.78c0,-3.74449 -3.03551,-6.78 -6.78,-6.78zM137.86,117.52c-3.74449,0 -6.78,3.03551 -6.78,6.78c0,3.74449 3.03551,6.78 6.78,6.78c3.74449,0 6.78,-3.03551 6.78,-6.78c0,-3.74449 -3.03551,-6.78 -6.78,-6.78zM174.94695,124.93562c0.94357,1.74771 1.54402,3.85529 1.20945,6.70055c-0.90865,7.67888 -3.20953,12.1662 -5.09383,14.73414c-1.88515,2.5691 -2.92211,2.99274 -2.92211,2.99274c-1.33176,0.7037 -2.22553,2.02449 -2.38359,3.52242c-0.43016,4.09889 -4.64035,13.11794 -11.02633,21.92023c-1.87988,-12.62681 -2.46229,-26.62588 4.44938,-38.0757c5.42907,-3.48878 10.77851,-7.37142 15.76703,-11.79438zM50.53219,125.43c4.33155,3.61267 8.91394,6.92001 13.60414,9.89633c7.46741,11.1225 7.36407,24.98427 5.65,37.6343c-5.679,-8.19838 -9.40245,-16.28035 -9.79922,-20.07516c-0.15696,-1.46748 -1.0204,-2.76594 -2.31297,-3.47828c0,0 -1.0364,-0.45231 -2.91328,-3.07219c-1.87688,-2.61988 -4.16918,-7.17067 -5.07617,-14.86656h0.00883c-0.29687,-2.526 0.10984,-4.45056 0.83867,-6.03844zM77.50211,142.73312c1.64512,0.81201 3.29945,1.69184 4.92609,2.41891c12.13784,5.42529 23.41236,8.52797 31.97547,8.52797c8.3346,0 19.15319,-3.30398 30.81016,-8.9782c0.34762,-0.16921 0.70184,-0.39143 1.05055,-0.565c-3.81064,14.12752 -1.24146,28.77857 0.83867,40.01789c-6.36619,6.79979 -13.75447,12.78421 -20.98445,16.14664c-0.7488,0.35095 -1.38698,0.90058 -1.84508,1.58906c-2.43857,3.64087 -6.5381,6.02961 -11.27352,6.02961c-4.73197,0 -8.82609,-2.38326 -11.26469,-6.02078c-0.4605,-0.68972 -1.10187,-1.23946 -1.85391,-1.58906c-7.82611,-3.62084 -15.78114,-10.32302 -22.51172,-17.77984c2.08513,-11.4162 4.32173,-25.88659 0.13242,-39.79719z"></path></g><g fill="#cccccc"><path d="M126.195,95.94v3.7h-10.97v30.42h-4.48v-30.42h-10.94v-3.7z"></path></g></g></svg>